{
  "accessors": [
    {
      "bufferView": 1,
      "componentType": 5126,
      "count": 1956,
      "max": [
        0.98579591512680054,
        3.5299355983734131,
        0.99886441230773926
      ],
      "min": [
        -0.99018502235412598,
        0.095078587532043457,
        -1.0280864238739014
      ],
      "type": "VEC3"
    },
    {
      "bufferView": 1,
      "byteOffset": 23472,
      "componentType": 5126,
      "count": 1956,
      "max": [
        0.99993014335632324,
        0.83933866024017334,
        0.99761754274368286
      ],
      "min": [
        -0.99707919359207153,
        -0.99035978317260742,
        -0.99929708242416382
      ],
      "type": "VEC3"
    },
    {
      "bufferView": 2,
      "componentType": 5126,
      "count": 1956,
      "max": [
        0.99917680025100708,
        0.99071776866912842,
        0.99994474649429321,
        1
      ],
      "min": [
        -0.99883526563644409,
        -0.99840658903121948,
        -0.99994474649429321,
        -1
      ],
      "type": "VEC4"
    },
    {
      "bufferView": 0,
      "componentType": 5125,
      "count": 2676,
      "max": [
        1955
      ],
      "min": [
        0
      ],
      "type": "SCALAR"
    },
    {
      "bufferView": 1,
      "byteOffset": 46944,
      "componentType": 5126,
      "count": 150,
      "max": [
        1.3994836807250977,
        1.1876482963562012,
        1.6410963535308838
      ],
      "min": [
        -1.8162574768066406,
        -0.040973246097564697,
        -1.1140058040618896
      ],
      "type": "VEC3"
    },
    {
      "bufferView": 1,
      "byteOffset": 48744,
      "componentType": 5126,
      "count": 150,
      "max": [
        0.99850088357925415,
        0.86247175931930542,
        0.92387962341308594
      ],
      "min": [
        -0.99850088357925415,
        -0.86247152090072632,
        -0.92387968301773071
      ],
      "type": "VEC3"
    },
    {
      "bufferView": 2,
      "byteOffset": 31296,
      "componentType": 5126,
      "count": 150,
      "max": [
        0.99850088357925415,
        0.92345833778381348,
        0.92387986183166504,
        1
      ],
      "min": [
        -0.99850088357925415,
        -0.92472749948501587,
        -0.92387956380844116,
        1
      ],
      "type": "VEC4"
    },
    {
      "bufferView": 0,
      "byteOffset": 10704,
      "componentType": 5125,
      "count": 288,
      "max": [
        149
      ],
      "min": [
        0
      ],
      "type": "SCALAR"
    }
  ],
  "asset": {
    "extras": {
      "author": "rickeletro (https://sketchfab.com/rickeletro)",
      "license": "CC-BY-4.0 (http://creativecommons.org/licenses/by/4.0/)",
      "source": "https://sketchfab.com/models/a96d894e8bd14eebafe7cd023178e663",
      "title": "Bonfire"
    },
    "generator": "Sketchfab-3.18.6",
    "version": "2.0"
  },
  "bufferViews": [
    {
      "buffer": 0,
      "byteLength": 11856,
      "byteOffset": 0,
      "name": "floatBufferViews",
      "target": 34963
    },
    {
      "buffer": 0,
      "byteLength": 50544,
      "byteOffset": 11856,
      "byteStride": 12,
      "name": "floatBufferViews",
      "target": 34962
    },
    {
      "buffer": 0,
      "byteLength": 33696,
      "byteOffset": 62400,
      "byteStride": 16,
      "name": "floatBufferViews",
      "target": 34962
    }
  ],
  "buffers": [
    {
      "byteLength": 96096,
      "uri": "scene.bin"
    }
  ],
  "materials": [
    {
      "doubleSided": true,
      "emissiveFactor": [
        0.073166999999999996,
        0,
        0
      ],
      "name": "lambert1",
      "pbrMetallicRoughness": {
        "baseColorFactor": [
          1,
          0.44269999999999998,
          0,
          1
        ],
        "metallicFactor": 0,
        "roughnessFactor": 0.59999999999999998
      }
    },
    {
      "doubleSided": true,
      "emissiveFactor": [
        0,
        0,
        0
      ],
      "name": "lambert4",
      "pbrMetallicRoughness": {
        "baseColorFactor": [
          0.18060000000000001,
          0.056399999999999999,
          0.0106,
          1
        ],
        "metallicFactor": 0,
        "roughnessFactor": 0.59999999999999998
      }
    }
  ],
  "meshes": [
    {
      "name": "pSphere1_lambert1_0",
      "primitives": [
        {
          "attributes": {
            "NORMAL": 1,
            "POSITION": 0,
            "TANGENT": 2
          },
          "indices": 3,
          "material": 0,
          "mode": 4
        }
      ]
    },
    {
      "name": "pSphere1_lambert4_0",
      "primitives": [
        {
          "attributes": {
            "NORMAL": 5,
            "POSITION": 4,
            "TANGENT": 6
          },
          "indices": 7,
          "material": 1,
          "mode": 4
        }
      ]
    }
  ],
  "nodes": [
    {
      "children": [
        1
      ],
      "name": "RootNode (gltf orientation matrix)",
      "rotation": [
        -0.70710678118654746,
        -0,
        -0,
        0.70710678118654757
      ]
    },
    {
      "children": [
        2
      ],
      "name": "RootNode (model correction matrix)"
    },
    {
      "children": [
        3
      ],
      "matrix": [
        1,
        0,
        0,
        0,
        0,
        0,
        1,
        0,
        0,
        -1,
        0,
        0,
        0,
        0,
        0,
        1
      ],
      "name": "1ebc41c7b36c4fa08eb0194dd9e46cdf.fbx"
    },
    {
      "children": [
        4
      ],
      "name": "RootNode"
    },
    {
      "children": [
        5,
        6
      ],
      "name": "pSphere1"
    },
    {
      "mesh": 0,
      "name": "pSphere1_lambert1_0"
    },
    {
      "mesh": 1,
      "name": "pSphere1_lambert4_0"
    }
  ],
  "scene": 0,
  "scenes": [
    {
      "name": "OSG_Scene",
      "nodes": [
        0
      ]
    }
  ]
}

