{
  "accessors": [
    {
      "bufferView": 2,
      "componentType": 5126,
      "count": 65532,
      "max": [
        37.822196960449219,
        52.942001342773438,
        35.761802673339844
      ],
      "min": [
        15.085799217224121,
        0,
        0
      ],
      "type": "VEC3"
    },
    {
      "bufferView": 2,
      "byteOffset": 786384,
      "componentType": 5126,
      "count": 65532,
      "max": [
        0.99999737739562988,
        0.99991846084594727,
        0.99999374151229858
      ],
      "min": [
        -0.9999813437461853,
        -0.99999862909317017,
        -0.9999997615814209
      ],
      "type": "VEC3"
    },
    {
      "bufferView": 3,
      "componentType": 5126,
      "count": 65532,
      "max": [
        0.99997490644454956,
        0.99994879961013794,
        0.99999183416366577,
        1
      ],
      "min": [
        -0.99998670816421509,
        -0.99999874830245972,
        -0.99997985363006592,
        1
      ],
      "type": "VEC4"
    },
    {
      "bufferView": 1,
      "componentType": 5126,
      "count": 65532,
      "max": [
        0.99902999401092529,
        0.99902600049972534
      ],
      "min": [
        0.00096940097864717245,
        0.00096809898968786001
      ],
      "type": "VEC2"
    },
    {
      "bufferView": 0,
      "componentType": 5125,
      "count": 369294,
      "max": [
        65531
      ],
      "min": [
        0
      ],
      "type": "SCALAR"
    },
    {
      "bufferView": 2,
      "byteOffset": 1572768,
      "componentType": 5126,
      "count": 65532,
      "max": [
        37.217201232910156,
        52.942001342773438,
        35.761802673339844
      ],
      "min": [
        0,
        0,
        0.0048007965087890625
      ],
      "type": "VEC3"
    },
    {
      "bufferView": 2,
      "byteOffset": 2359152,
      "componentType": 5126,
      "count": 65532,
      "max": [
        0.99999988079071045,
        0.99991846084594727,
        0.99999374151229858
      ],
      "min": [
        -0.99999314546585083,
        -0.99999862909317017,
        -0.99999737739562988
      ],
      "type": "VEC3"
    },
    {
      "bufferView": 3,
      "byteOffset": 1048512,
      "componentType": 5126,
      "count": 65532,
      "max": [
        0.99997925758361816,
        0.999977707862854,
        0.99997878074645996,
        1
      ],
      "min": [
        -0.9999585747718811,
        -0.99994051456451416,
        -0.99999111890792847,
        1
      ],
      "type": "VEC4"
    },
    {
      "bufferView": 1,
      "byteOffset": 524256,
      "componentType": 5126,
      "count": 65532,
      "max": [
        0.99902999401092529,
        0.99534702301025391
      ],
      "min": [
        0.00096940097864717245,
        0.00096940097864717245
      ],
      "type": "VEC2"
    },
    {
      "bufferView": 0,
      "byteOffset": 1477176,
      "componentType": 5125,
      "count": 368643,
      "max": [
        65531
      ],
      "min": [
        0
      ],
      "type": "SCALAR"
    },
    {
      "bufferView": 2,
      "byteOffset": 3145536,
      "componentType": 5126,
      "count": 8910,
      "max": [
        19.228315353393555,
        40.366401672363281,
        35.573799133300781
      ],
      "min": [
        0.310699462890625,
        2.2014007568359375,
        5.5980005264282227
      ],
      "type": "VEC3"
    },
    {
      "bufferView": 2,
      "byteOffset": 3252456,
      "componentType": 5126,
      "count": 8910,
      "max": [
        0.99997425079345703,
        0.99923938512802124,
        0.99987214803695679
      ],
      "min": [
        -0.99993520975112915,
        -0.99996113777160645,
        -0.99978864192962646
      ],
      "type": "VEC3"
    },
    {
      "bufferView": 3,
      "byteOffset": 2097024,
      "componentType": 5126,
      "count": 8910,
      "max": [
        0.99997437000274658,
        0.99998140335083008,
        0.99973511695861816,
        1
      ],
      "min": [
        -0.99961650371551514,
        -0.81885755062103271,
        -0.99990946054458618,
        1
      ],
      "type": "VEC4"
    },
    {
      "bufferView": 1,
      "byteOffset": 1048512,
      "componentType": 5126,
      "count": 8910,
      "max": [
        0.99534898996353149,
        0.98799800872802734
      ],
      "min": [
        0.43847000598907471,
        0.44949901103973389
      ],
      "type": "VEC2"
    },
    {
      "bufferView": 0,
      "byteOffset": 2951748,
      "componentType": 5125,
      "count": 49371,
      "max": [
        8909
      ],
      "min": [
        0
      ],
      "type": "SCALAR"
    }
  ],
  "asset": {
    "extras": {
      "author": "fpernudo (https://sketchfab.com/fpernudo)",
      "license": "CC-BY-NC-4.0 (http://creativecommons.org/licenses/by-nc/4.0/)",
      "source": "https://sketchfab.com/models/054544077f234dacb5b8208e1f4eb7ce",
      "title": "Goblin"
    },
    "generator": "Sketchfab-3.20.7",
    "version": "2.0"
  },
  "bufferViews": [
    {
      "buffer": 0,
      "byteLength": 3149232,
      "byteOffset": 0,
      "name": "floatBufferViews",
      "target": 34963
    },
    {
      "buffer": 0,
      "byteLength": 1119792,
      "byteOffset": 3149232,
      "byteStride": 8,
      "name": "floatBufferViews",
      "target": 34962
    },
    {
      "buffer": 0,
      "byteLength": 3359376,
      "byteOffset": 4269024,
      "byteStride": 12,
      "name": "floatBufferViews",
      "target": 34962
    },
    {
      "buffer": 0,
      "byteLength": 2239584,
      "byteOffset": 7628400,
      "byteStride": 16,
      "name": "floatBufferViews",
      "target": 34962
    }
  ],
  "buffers": [
    {
      "byteLength": 9867984,
      "uri": "scene.bin"
    }
  ],
  "extensionsRequired": [
    "KHR_materials_pbrSpecularGlossiness"
  ],
  "extensionsUsed": [
    "KHR_materials_pbrSpecularGlossiness"
  ],
  "images": [
    {
      "uri": "textures/SculptMaterial_diffuse.png"
    },
    {
      "uri": "textures/SculptMaterial_specularGlossiness.png"
    },
    {
      "uri": "textures/SculptMaterial_emissive.png"
    }
  ],
  "materials": [
    {
      "doubleSided": true,
      "emissiveFactor": [
        0,
        0,
        0
      ],
      "emissiveTexture": {
        "index": 2,
        "texCoord": 0
      },
      "extensions": {
        "KHR_materials_pbrSpecularGlossiness": {
          "diffuseFactor": [
            1,
            1,
            1,
            1
          ],
          "diffuseTexture": {
            "index": 0,
            "texCoord": 0
          },
          "glossinessFactor": 1,
          "specularFactor": [
            1,
            1,
            1
          ],
          "specularGlossinessTexture": {
            "index": 1,
            "texCoord": 0
          }
        }
      },
      "name": "SculptMaterial"
    }
  ],
  "meshes": [
    {
      "primitives": [
        {
          "attributes": {
            "NORMAL": 1,
            "POSITION": 0,
            "TANGENT": 2,
            "TEXCOORD_0": 3
          },
          "indices": 4,
          "material": 0,
          "mode": 4
        }
      ]
    },
    {
      "primitives": [
        {
          "attributes": {
            "NORMAL": 6,
            "POSITION": 5,
            "TANGENT": 7,
            "TEXCOORD_0": 8
          },
          "indices": 9,
          "material": 0,
          "mode": 4
        }
      ]
    },
    {
      "primitives": [
        {
          "attributes": {
            "NORMAL": 11,
            "POSITION": 10,
            "TANGENT": 12,
            "TEXCOORD_0": 13
          },
          "indices": 14,
          "material": 0,
          "mode": 4
        }
      ]
    }
  ],
  "nodes": [
    {
      "children": [
        1
      ],
      "name": "RootNode (gltf orientation matrix)",
      "rotation": [
        -0.70710678118654746,
        -0,
        -0,
        0.70710678118654757
      ]
    },
    {
      "children": [
        2
      ],
      "matrix": [
        1,
        0,
        0,
        0,
        0,
        -0.11848092079162598,
        -0.99295634031295776,
        0,
        0,
        0.99295634031295776,
        -0.11848092079162598,
        0,
        0,
        1.1067851781845093,
        -4.7465434074401855,
        1
      ],
      "name": "RootNode (model correction matrix)"
    },
    {
      "children": [
        3,
        4,
        5
      ],
      "matrix": [
        1,
        0,
        0,
        0,
        0,
        1,
        0,
        0,
        0,
        0,
        1,
        0,
        -18.378799438476562,
        -28.024499893188477,
        -20.745500564575195,
        1
      ],
      "name": "Goblin .obj.cleaner.gles"
    },
    {
      "mesh": 0,
      "name": ""
    },
    {
      "mesh": 1,
      "name": ""
    },
    {
      "mesh": 2,
      "name": ""
    }
  ],
  "samplers": [
    {
      "magFilter": 9729,
      "minFilter": 9987,
      "wrapS": 10497,
      "wrapT": 10497
    }
  ],
  "scene": 0,
  "scenes": [
    {
      "name": "OSG_Scene",
      "nodes": [
        0
      ]
    }
  ],
  "textures": [
    {
      "sampler": 0,
      "source": 0
    },
    {
      "sampler": 0,
      "source": 1
    },
    {
      "sampler": 0,
      "source": 2
    }
  ]
}

